<?xml version="1.0" standalone="no"?><!DOCTYPE svg PUBLIC "-//W3C//DTD SVG 1.1//EN" "http://www.w3.org/Graphics/SVG/1.1/DTD/svg11.dtd"><svg t="1568944017652" class="icon" viewBox="0 0 1024 1024" version="1.1" xmlns="http://www.w3.org/2000/svg" p-id="3310" xmlns:xlink="http://www.w3.org/1999/xlink" width="30" height="30"><defs><style type="text/css"></style></defs><path d="M690.88 655.168L532.992 813.056c-2.816 3.584-6.464 6.4-10.816 8-0.32 0.064-0.512 0.128-0.704 0.128-2.56 1.152-5.376 1.536-8.192 1.664-0.384 0-0.832 0.32-1.216 0.32-0.768 0-1.408-0.512-2.176-0.512-1.664-0.128-3.328-0.512-4.992-1.088-1.984-0.512-3.776-1.344-5.568-2.24-1.088-0.576-2.112-1.344-3.136-2.112-0.896-0.704-2.048-1.024-2.88-1.984L333.184 655.168c-10.368-10.304-10.368-27.072 0-37.248 10.24-10.304 27.008-10.304 37.376 0l115.2 115.136V476.288c0-14.72 11.968-26.816 26.688-26.816s26.688 12.032 26.688 26.816v255.936L653.568 617.92c10.176-10.304 27.008-10.304 37.312 0 10.24 10.176 10.24 26.944 0 37.248zM512.256 378.56c-14.72 0-26.688-11.968-26.688-26.688 0-14.656 11.904-26.624 26.688-26.624 14.784 0 26.688 11.968 26.688 26.624 0.064 14.784-11.904 26.688-26.688 26.688z m0-124.416c-14.72 0-26.688-11.904-26.688-26.688 0-14.656 11.904-26.624 26.688-26.624 14.784 0 26.688 11.968 26.688 26.624 0.064 14.784-11.904 26.688-26.688 26.688z" p-id="3311" fill="#ffffff"></path></svg>