<?xml version="1.0" standalone="no"?><!DOCTYPE svg PUBLIC "-//W3C//DTD SVG 1.1//EN" "http://www.w3.org/Graphics/SVG/1.1/DTD/svg11.dtd"><svg t="1547618403317" class="icon" style="" viewBox="0 0 1024 1024" version="1.1" xmlns="http://www.w3.org/2000/svg" p-id="3417" xmlns:xlink="http://www.w3.org/1999/xlink" width="200" height="200"><defs><style type="text/css"></style></defs><path d="M507.6 654.7m-289.7 0a289.7 289.7 0 1 0 579.4 0 289.7 289.7 0 1 0-579.4 0Z" fill="#FDE044" p-id="3418"></path><path d="M507.1 832.3C442.6 761.6 377.8 692.1 315 620.9c-35.9-40.6-66.3-85.5-86.5-136.3-16.6-41.9-22.8-85.4-18.5-130.3 5.3-54.3 24.1-103.6 56.6-147.6 43.7-59.1 101.2-98.7 173.5-114.4 94.2-20.5 180.4-1.9 255.6 58.7 63.1 50.8 99.2 117.5 109.1 197.5 8.3 66.9-6.9 129.3-41.4 187.1-26.7 44.8-59.1 85.5-94.4 123.8-48 52.3-97 103.7-145.6 155.4-5 5.4-10 10.8-16.3 17.5m100.5-498.7c-0.1-54.5-45.3-99.7-99.7-99.6-54.8 0.1-100 45.3-99.7 99.9 0.2 54.8 44.8 99.7 99.6 99.6 55.3-0.2 99.4-44.8 99.8-99.9" fill="#171900" p-id="3419"></path></svg>