<?xml version="1.0" encoding="UTF-8"?>
<svg width="18px" height="18px" viewBox="0 0 18 18" version="1.1" xmlns="http://www.w3.org/2000/svg" xmlns:xlink="http://www.w3.org/1999/xlink">
    <!-- Generator: Sketch 51.3 (57544) - http://www.bohemiancoding.com/sketch -->
    <title>choose_pre</title>
    <desc>Created with Sketch.</desc>
    <defs></defs>
    <g id="choose_pre" stroke="none" stroke-width="1" fill="none" fill-rule="evenodd">
        <g fill="#FF5B00" fill-rule="nonzero">
            <path d="M9,0 C4.02975,0 0,4.02940074 0,9.00022501 C0,13.9710493 4.02930001,18 9,18 C13.97025,18 18,13.9710493 18,9.00022501 C18,4.02940074 13.97025,0 9,0 Z M14.94135,6.65431635 L8.5023,12.9423236 C8.47125,12.9729243 8.43615,12.9972249 8.4015,13.0228756 C8.35605,13.119178 8.29574999,13.2105303 8.2152,13.2910823 C7.86375,13.6420911 7.3116,13.6605415 6.98309999,13.3315833 L3.11219999,9.4601365 C2.78324999,9.13117828 2.80169999,8.5799145 3.15314999,8.22845571 C3.50459999,7.87699692 4.0563,7.85854646 4.38479999,8.18705467 L7.55189999,11.3546839 L13.68405,5.36638415 C14.04,5.01942547 14.6097,5.02617564 14.95665,5.38168454 C15.30405,5.73719343 15.2973,6.30735769 14.94135,6.65431635 Z"></path>
        </g>
    </g>
</svg>