<?xml version="1.0" standalone="no"?><!DOCTYPE svg PUBLIC "-//W3C//DTD SVG 1.1//EN" "http://www.w3.org/Graphics/SVG/1.1/DTD/svg11.dtd"><svg t="1536583001152" class="icon" style="" viewBox="0 0 1024 1024" version="1.1" xmlns="http://www.w3.org/2000/svg" p-id="2526" xmlns:xlink="http://www.w3.org/1999/xlink" width="64" height="64"><defs><style type="text/css"></style></defs><path d="M512 32c-265.6 0-480 214.4-480 480s214.4 480 480 480 480-214.4 480-480c0-265.6-214.4-480-480-480zM512 953.6c-243.2 0-441.6-198.4-441.6-441.6s198.4-441.6 441.6-441.6 441.6 198.4 441.6 441.6c0 243.2-198.4 441.6-441.6 441.6z" p-id="2527"></path><path d="M764.8 259.2v0c-8-8-19.2-8-27.2 0l-224 224-224-224c-8-8-19.2-8-27.2 0v0c-8 8-8 19.2 0 27.2l224 224-224 224c-8 8-8 19.2 0 27.2v0c8 8 19.2 8 27.2 0l224-224 224 224c8 8 19.2 8 27.2 0v0c8-8 8-19.2 0-27.2l-224-224 224-224c6.4-6.4 6.4-19.2 0-27.2z" p-id="2528"></path></svg>