<?xml version="1.0" standalone="no"?><!DOCTYPE svg PUBLIC "-//W3C//DTD SVG 1.1//EN" "http://www.w3.org/Graphics/SVG/1.1/DTD/svg11.dtd"><svg t="1547451773044" class="icon" style="" viewBox="0 0 1024 1024" version="1.1" xmlns="http://www.w3.org/2000/svg" p-id="3483" xmlns:xlink="http://www.w3.org/1999/xlink" width="200" height="200"><defs><style type="text/css"></style></defs><path d="M866.3 815.5H138.5c-14.3 0-23.9-9.5-23.9-23.9V273.8L463 622.2c14.3 14.3 31 21.5 50.1 21.5s38.2-7.2 50.1-21.5l348.4-348.4v365.1c0 14.3 9.5 23.9 23.9 23.9 14.3 0 23.9-9.5 23.9-23.9V233.2c0-7.2-2.4-14.3-2.4-21.5v-2.4c-9.5-28.6-35.8-47.7-66.8-47.7H138.5c-31 0-57.3 19.1-66.8 47.7v2.4c-2.4 7.2-4.8 14.3-4.8 21.5v558.4c0 40.6 31 71.6 71.6 71.6h727.9c14.3 0 23.9-9.5 23.9-23.9-0.1-14.3-12-23.8-24-23.8z m21.5-606.2c4.8 0 11.9 2.4 14.3 4.8L529.9 588.8c-9.5 9.5-23.9 9.5-33.4 0L121.8 216.5c4.8-2.4 9.5-4.8 14.3-4.8h751.7v-2.4z m31 627.7c0 14.3 9.5 26.3 23.9 26.3 11.9 0 23.9-9.5 23.9-21.5v-2.4c0-11.9-9.5-23.9-21.5-23.9-14.3-2.4-26.3 9.5-26.3 21.5z" fill="#FFD75F" p-id="3484"></path></svg>