<?xml version="1.0" encoding="UTF-8"?>
<svg width="26px" height="26px" viewBox="0 0 26 26" version="1.1" xmlns="http://www.w3.org/2000/svg" xmlns:xlink="http://www.w3.org/1999/xlink">
    <!-- Generator: Sketch 51.3 (57544) - http://www.bohemiancoding.com/sketch -->
    <title>honey</title>
    <desc>Created with Sketch.</desc>
    <defs></defs>
    <g id="honey" stroke="none" stroke-width="1" fill="none" fill-rule="evenodd">
        <g transform="translate(1.000000, 0.000000)" fill-rule="nonzero">
            <path d="M4.30933659,5.5 L2.5697624,18.2568774 C2.53617831,18.5031607 2.51932833,18.7514374 2.51932833,19 C2.51932833,22.0375661 4.9817622,24.5 8.01932833,24.5 L15.9806717,24.5 C16.2292343,24.5 16.477511,24.48315 16.7237943,24.4495659 C19.7335065,24.0391506 21.8406529,21.2665895 21.4302376,18.2568774 L19.6906634,5.5 M21,4 L22.9164829,18.0542076 C23.4388296,21.8847503 20.7570068,25.4134644 16.9264641,25.9358112 C16.6130126,25.9785546 16.2970241,26 15.9806717,26 L8.01932833,26 C4.15333508,26 1.01932833,22.8659932 1.01932833,19 C1.01932833,18.6836476 1.04077376,18.3676591 1.08351715,18.0542076 L3,4" id="Rectangle-2" fill="#231815"></path>
            <path d="M4.5,4.5 L19.5,4.5 L19.5,2.5 C19.5,1.94771525 19.0522847,1.5 18.5,1.5 L5.5,1.5 C4.94771525,1.5 4.5,1.94771525 4.5,2.5 L4.5,4.5 Z M5.5,0 L18.5,0 C19.8807119,-2.53632657e-16 21,1.11928813 21,2.5 L21,5 C21,5.55228475 20.5522847,6 20,6 L4,6 C3.44771525,6 3,5.55228475 3,5 L3,2.5 C3,1.11928813 4.11928813,2.53632657e-16 5.5,0 Z" id="Rectangle-3" fill="#231815"></path>
            <path d="M3.21395021,4.85632858 L1.42126542,10.3289906 C1.3892697,10.4100326 1.42902956,10.5016678 1.51007154,10.5336635 C1.547503,10.5484416 1.58916696,10.5483564 1.62653769,10.5334254 C2.00873867,10.3807219 2.30872529,10.223231 2.52649755,10.0609529 C2.76855835,9.84600228 3.97886235,9.33857782 4.59127616,10.8115182 C5.00520012,11.8087482 6.71414938,11.5656073 7.49600575,10.6459005 C9.47848371,8.2708722 10.9381103,10.8538036 10.9381104,10.8538036 C10.9381104,10.8538036 12.2597623,12.5170282 13.9130376,10.5014255 C15.5663128,8.48582285 16.8855442,10.3358078 16.8855442,10.3358078 C16.8855442,10.3358078 18.5717082,12.0419378 19.9718194,10.1701901 C20.410732,9.5834269 21.1958745,9.65240207 22.3272468,10.3771156 C22.6069857,10.5563055 22.7471727,10.4631155 22.7478079,10.0975456 L21,4.85632858 L3.21395021,4.85632858 Z" id="Shape" fill="#FDCC02"></path>
            <path d="M12.2250646,10.6451184 C11.6400983,10.6488959 11.0719864,10.4032137 10.616603,9.94953292 L10.5499667,9.86435919 C10.3776315,9.61451626 9.44242601,8.41924491 8.09131827,9.79338108 C7.36829656,10.4493162 6.46451604,10.7249174 5.57752255,10.5599446 C5.13478619,10.5007994 4.73597716,10.2024396 4.48836425,9.74511596 C4.11152466,8.97003504 3.32108069,9.37886892 3.31418726,9.38454717 C2.75340017,9.74969881 2.14250415,9.98268938 1.51271028,10.0716153 C1.29659847,10.10434 1.08408685,9.98328941 0.963874845,9.75898827 C0.843662836,9.53468713 0.836413694,9.24569062 0.945153109,9.01262187 L3.16712793,4.22869743 C3.2682453,4.00757956 3.45790316,3.87088243 3.66345322,3.87096778 L20.3730715,3.87096778 C20.5880637,3.87213895 20.7846824,4.02096625 20.8831837,4.25708867 L22.9512057,9.22271708 C23.0637462,9.53843109 22.9762655,9.90840908 22.7438664,10.0996078 C22.5114673,10.2908065 22.2014573,10.2478509 22.0091068,9.99779801 C21.8390694,9.74511593 21.2715123,9.07792172 20.7108485,9.03249575 C20.4310713,9.01764082 20.1594367,9.15085889 19.9640627,9.39874279 C18.6382308,10.8978004 16.9998978,10.179502 16.3197483,9.59180324 C16.2959807,9.57151806 16.2736848,9.54871931 16.253112,9.52366427 C16.1634977,9.42429492 15.3156087,8.53848814 14.18509,9.68833348 C13.6457411,10.2873447 12.9501244,10.6269095 12.2250646,10.6451184 Z M11.3863668,8.89337867 C11.5380217,9.038174 12.3629327,9.71104647 13.4543888,8.60946624 C14.9686405,7.05362614 16.4093626,7.80883319 16.9998978,8.45899263 C17.1860197,8.6066271 18.2797736,9.38454714 19.1851078,8.36246242 C19.6146467,7.85061032 20.1978377,7.5839955 20.7935694,7.62712922 C20.8693968,7.62712922 20.9429265,7.6470031 21.0233496,7.66119872 L20.0398902,5.30188641 L4.00352795,5.30188641 L2.6386334,8.22618446 L2.71675867,8.16940198 C3.20161244,7.86068416 3.75953656,7.77514298 4.29075324,7.92807641 C4.78527936,8.07711698 5.20928302,8.46875405 5.46493022,9.01262187 C5.54944921,9.10128871 5.65521666,9.15316344 5.76594231,9.16025634 C6.32332785,9.25439968 6.88915071,9.08948406 7.35372371,8.69747909 C9.44242601,6.57665323 11.0830569,8.49590127 11.3863668,8.89337867 Z" id="Shape" fill="#231815"></path>
            <path d="M14.25,18 C14.25,17.5857864 14.5857864,17.25 15,17.25 C15.4142136,17.25 15.75,17.5857864 15.75,18 C15.75,19.7412069 16.8049253,20.7961321 19.1470871,21.2645645 C19.5532569,21.3457985 19.8166695,21.7409173 19.7354355,22.1470871 C19.6542015,22.5532569 19.2590827,22.8166695 18.8529129,22.7354355 C15.8617414,22.1372012 14.25,20.5254598 14.25,18 Z" id="Path-3" fill="#231815" transform="translate(17.000072, 20.000072) scale(-1, 1) translate(-17.000072, -20.000072) "></path>
        </g>
    </g>
</svg>