<?xml version="1.0" standalone="no"?><!DOCTYPE svg PUBLIC "-//W3C//DTD SVG 1.1//EN" "http://www.w3.org/Graphics/SVG/1.1/DTD/svg11.dtd"><svg t="1571123335332" class="icon" viewBox="0 0 1024 1024" version="1.1" xmlns="http://www.w3.org/2000/svg" p-id="3117" xmlns:xlink="http://www.w3.org/1999/xlink" width="30" height="30"><defs><style type="text/css"></style></defs><path d="M551.479 824.288c0 77.093-59.13 37.292-59.13 37.292L236.302 646.16h-39.544c-24.503 0-44.348-20.212-44.348-45.147V420.468c0-24.94 19.845-45.141 44.348-45.141h47.298L492.35 164.69s59.135-40.125 59.135 37.61v621.992h-0.005v-0.005z m133.015-193.184c73.91-60.18 68.978-174.284 0-225.688-27.088-16.293-44.334 37.62-44.334 37.62s68.969 86.514 0 150.457c-13.556 17.555 12.315 53.916 44.334 37.61z m36.955-353.572c-9.855-8.784-57.884 23.822-29.558 52.653 146.566 124.135 149.023 240.74 0 368.628-22.178 21.314 7.378 61.448 29.558 52.653 203.214-94.041 194.61-386.17 0-473.934z m0 0" p-id="3118"></path></svg>