<?xml version="1.0" standalone="no"?><!DOCTYPE svg PUBLIC "-//W3C//DTD SVG 1.1//EN" "http://www.w3.org/Graphics/SVG/1.1/DTD/svg11.dtd"><svg t="1547794726779" class="icon" style="" viewBox="0 0 1024 1024" version="1.1" xmlns="http://www.w3.org/2000/svg" p-id="3980" xmlns:xlink="http://www.w3.org/1999/xlink" width="200" height="200"><defs><style type="text/css"></style></defs><path d="M954.9 406.8c-7.7-20.9-27.6-36.3-51.5-39.6l-232.6-32.4-101.1-197c-10.6-20.7-33.4-33.9-58.4-33.9s-47.8 13.2-58.4 33.9l-101.1 197-232.6 32.4c-23.9 3.3-43.7 18.7-51.5 39.6-7.7 21-1.9 44.1 15 59.9l170.4 159.7-39.5 221.5c-4 22.3 6.3 44.7 26.5 57.7 11.1 7.2 24.1 10.8 37.2 10.8 10.7 0 21.5-2.5 31.2-7.4l202.8-102.4L714.1 909c9.7 4.9 20.5 7.4 31.2 7.4 13 0 26.1-3.6 37.2-10.8 20.2-13.1 30.4-35.4 26.5-57.7l-39.6-221.5 170.5-159.7c16.9-15.8 22.7-38.9 15-59.9z" fill="#FDE044" p-id="3981"></path></svg>