<?xml version="1.0" encoding="UTF-8"?>
<svg width="13px" height="16px" viewBox="0 0 13 16" version="1.1" xmlns="http://www.w3.org/2000/svg" xmlns:xlink="http://www.w3.org/1999/xlink">
    <!-- Generator: Sketch 51.3 (57544) - http://www.bohemiancoding.com/sketch -->
    <title>location_line@2x</title>
    <desc>Created with Sketch.</desc>
    <defs></defs>
    <g id="location_line" stroke="none" stroke-width="1" fill="none" fill-rule="evenodd">
        <path d="M8.99961488,6.56824428 C8.99795572,5.18812159 7.86528655,4.04422656 6.50206092,4.04590388 C5.12965908,4.04761542 3.99770099,5.19308508 4.00359272,6.5742347 C4.0094506,7.96099819 5.1268148,9.09938204 6.49945366,9.09640395 C7.88512883,9.09346009 8.98986305,7.96349704 8.99961488,6.56824428 M6.48623569,15 C5.30024876,13.6755835 4.10936317,12.3752207 2.95356126,11.0436824 C2.29350292,10.283302 1.73468338,9.4433556 1.36420534,8.49257349 C1.05866942,7.70842232 0.944507508,6.89451057 1.02498536,6.05437556 C1.12230524,5.03784662 1.4686166,4.11479703 2.06522574,3.29239574 C2.86827806,2.18545312 3.92568705,1.44568342 5.25546108,1.15024718 C6.98669129,0.765623535 8.5715218,1.11510989 9.95443454,2.24888891 C11.1143886,3.19981251 11.7780393,4.44871922 11.9594294,5.94570936 C12.1111943,7.19815338 11.8327176,8.36622073 11.1987854,9.44802485 C10.7075673,10.2863676 10.1123111,11.0483045 9.46396285,11.7653882 C8.58029272,12.7425823 7.67945397,13.7038348 6.78607984,14.6721148 C6.69337868,14.7726216 6.6015173,14.8738831 6.48623569,15" stroke="#4A4A4A"></path>
    </g>
</svg>