<?xml version="1.0" standalone="no"?><!DOCTYPE svg PUBLIC "-//W3C//DTD SVG 1.1//EN" "http://www.w3.org/Graphics/SVG/1.1/DTD/svg11.dtd"><svg t="1547451763369" class="icon" style="" viewBox="0 0 1024 1024" version="1.1" xmlns="http://www.w3.org/2000/svg" p-id="3372" xmlns:xlink="http://www.w3.org/1999/xlink" width="200" height="200"><defs><style type="text/css"></style></defs><path d="M827.6 368.7c-10.7 0-19.4 8.7-19.4 19.4v482.1c0 25.9-21.1 47-47 47H259.7c-25.9 0-47-21.1-47-47V149.3c0-25.9 21.1-47 47-47h501.5c25.9 0 47 21.1 47 47v25.8c0 10.7 8.7 19.4 19.4 19.4s19.4-8.7 19.4-19.4v-25.8c0-47.3-38.5-85.7-85.7-85.7H259.7c-47.3 0-85.7 38.5-85.7 85.7v720.9c0 47.3 38.5 85.7 85.7 85.7h501.5c47.3 0 85.7-38.5 85.7-85.7V388.1c0-10.7-8.7-19.4-19.3-19.4z" fill="#FFD75F" p-id="3373"></path><path d="M754.2 644.8V305.1c0-39.4-32-71.4-71.4-71.4H338.1c-39.4 0-71.4 32-71.4 71.4v339.7c0 39.4 32 71.4 71.4 71.4h344.7c39.4 0 71.4-32 71.4-71.4z m-448.8 0V305.1c0-18 14.7-32.7 32.7-32.7h344.7c18 0 32.7 14.7 32.7 32.7v339.7c0 18-14.7 32.7-32.7 32.7H338.1c-18.1 0-32.7-14.7-32.7-32.7zM356.4 180.4c0.1 0 0.1 0 0 0l308.1-1.4c10.7 0 19.3-8.8 19.3-19.4 0-10.7-8.7-19.3-19.4-19.3h-0.1l-308 1.4c-10.7 0-19.3 8.8-19.3 19.4 0.1 10.7 8.8 19.3 19.4 19.3zM433 814c0 42.7 34.7 77.4 77.4 77.4s77.4-34.7 77.4-77.4-34.7-77.4-77.4-77.4S433 771.3 433 814z m116.2 0c0 21.3-17.4 38.7-38.7 38.7-21.3 0-38.7-17.4-38.7-38.7s17.4-38.7 38.7-38.7c21.3 0 38.7 17.4 38.7 38.7z" fill="#FFD75F" p-id="3374"></path><path d="M828.7 229.1m-19.4 0a19.4 19.4 0 1 0 38.8 0 19.4 19.4 0 1 0-38.8 0Z" fill="#FFD75F" p-id="3375"></path></svg>