<?xml version="1.0" standalone="no"?><!DOCTYPE svg PUBLIC "-//W3C//DTD SVG 1.1//EN" "http://www.w3.org/Graphics/SVG/1.1/DTD/svg11.dtd"><svg t="1547622497974" class="icon" style="" viewBox="0 0 1024 1024" version="1.1" xmlns="http://www.w3.org/2000/svg" p-id="3534" xmlns:xlink="http://www.w3.org/1999/xlink" width="200" height="200"><defs><style type="text/css"></style></defs><path d="M528 680.9m-279.4 0a279.4 279.4 0 1 0 558.8 0 279.4 279.4 0 1 0-558.8 0Z" fill="#FFDC48" p-id="3535"></path><path d="M504.9 775.2c-5 1.7-21.8 6.4-76.1 16-3.2 0.6-6.5-0.5-8.8-2.8-2.3-2.3-3.4-5.7-3-9 8.1-57.2 12.4-75.3 14-80.6l376.1-387.2c0.6 0.3 1.1 0.7 1.5 1.2l71.5 73.6c0.5 0.5 0.8 1 1.1 1.6L504.9 775.2z m404.3-419l-71.5-73.6c-16.8-17.3-42.9-18.6-58.1-2.9L399.3 671.3c-5.6 5.8-10.1 10.4-23.1 101.9-2.1 15.2 2.2 30.6 11.9 42.2 9.7 11.6 23.8 18.3 38.7 18.4 3 0 6-0.3 8.9-0.8 86.1-15.2 90.7-19.9 95.9-25.4L912 416c15.2-15.6 14-42.5-2.8-59.8z" fill="#171900" p-id="3536"></path><path d="M786.7 606.3c-7.3 0-14.3 3-19.4 8.3-5.2 5.3-8.1 12.5-8.1 20v170.3c0 54.3-47.8 98.5-106.5 98.5H249.5c-58.7 0-106.5-44.2-106.5-98.5v-589c0-54.3 47.8-98.5 106.5-98.5h403.3c52.8 0 98.1 36.5 105.5 84.9 1.4 10.1 8 18.5 17.2 22.2 9.2 3.7 19.6 2 27.3-4.4 7.7-6.4 11.4-16.5 9.8-26.6-5.6-36.7-25-70.5-54.6-95-29.9-24.5-67-37.8-105.2-37.7H249.5c-89 0-161.5 69.6-161.5 155.1v589C88 890.4 160.4 960 249.5 960h403.3c89 0 161.5-69.6 161.5-155.1V634.6c0-7.5-2.9-14.7-8.1-20-5.2-5.4-12.2-8.3-19.5-8.3z" fill="#171900" p-id="3537"></path><path d="M228.4 420.4c-14 0-25.4 11.8-25.4 26.4 0 14.6 11.4 26.4 25.4 26.4h279.1c14 0 25.4-11.8 25.4-26.4 0-14.6-11.4-26.4-25.4-26.4H228.4z m279.2-132H228.4c-14 0-25.4 11.8-25.4 26.4 0 14.6 11.4 26.4 25.4 26.4h279.1c14 0 25.4-11.8 25.4-26.4 0.1-14.5-11.3-26.4-25.3-26.4z" fill="#171900" p-id="3538"></path></svg>