<?xml version="1.0" encoding="UTF-8"?>
<svg width="26px" height="26px" viewBox="0 0 26 26" version="1.1" xmlns="http://www.w3.org/2000/svg" xmlns:xlink="http://www.w3.org/1999/xlink">
    <!-- Generator: Sketch 51.3 (57544) - http://www.bohemiancoding.com/sketch -->
    <title>order</title>
    <desc>Created with Sketch.</desc>
    <defs></defs>
    <g id="order" stroke="none" stroke-width="1" fill="none" fill-rule="evenodd">
        <g transform="translate(2.000000, 0.000000)">
            <rect id="Rectangle" fill="#FDCC02" x="6" y="1" width="10" height="4.5" rx="1"></rect>
            <path d="M14.1236368,4.37882715 C14.9139451,4.37606974 15.5539331,3.73544448 15.5566878,2.94434911 L15.5566878,1.43447804 C15.5539331,0.643382669 14.9139451,0.00275741573 14.1236368,0 L7.83608771,0 C7.04555132,0.0022088715 6.40524336,0.643154445 6.40303669,1.43447804 L6.40303669,2.94434911 C6.40524336,3.73567271 7.04555132,4.37661828 7.83608771,4.37882715 L14.1236368,4.37882715 Z M8.33608771,1.43447804 L13.6236368,1.43447804 C13.8997791,1.43447804 14.1236368,1.65833567 14.1236368,1.93447804 L14.1236368,2.44434911 C14.1236368,2.72049149 13.8997791,2.94434911 13.6236368,2.94434911 L8.33608771,2.94434911 C8.05994534,2.94434911 7.83608771,2.72049149 7.83608771,2.44434911 L7.83608771,1.93447804 C7.83608771,1.65833567 8.05994534,1.43447804 8.33608771,1.43447804 Z M17.416541,2.57944685 C17.416541,2.98250676 17.7429605,3.30925137 18.1456195,3.30925137 C18.7069899,3.30925137 20.5,3.30925137 20.5,6.71500583 L20.5,17.0206902 C20.5,17.2388274 19.4712168,17.5645252 18.9776326,17.5645252 L14.7181471,17.5645252 C13.4573233,17.5645252 12.5088182,18.5245298 12.5088182,19.798672 L12.5088182,23.6075279 C12.5088182,24.6580041 12.7638953,25.3315151 13.289113,25.6672654 C13.5291264,25.8215698 13.7791823,25.8753502 14.0171873,25.8753502 C14.4429852,25.8753502 14.8195753,25.7004384 15.0023471,25.6149929 C15.9548691,25.1711793 19.3366486,21.6694244 20.365995,20.4324761 C21.619287,18.9276312 22,18.0294489 22,17.0704496 L22,6.71400059 C21.9989958,3.62288638 20.5136183,1.84964232 18.1456195,1.84964232 C17.7429605,1.84964232 17.416541,2.17638694 17.416541,2.57944685 Z M19.2452627,19.4981051 C17.9748986,21.0235574 14.9330545,24.0247026 14.3867477,24.2895835 C14.2863237,24.3408507 14.1803763,24.3327218 14.0709141,24.3598633 C14.032753,24.2724074 13.965971,24.0960747 13.965971,23.60602 L13.965971,19.7971642 C13.965971,19.42422 14.2004611,19.0221238 14.7181471,19.0221238 L18.9776326,19.0221238 C19.1232475,19.0221238 19.380333,19.0000085 19.6821073,18.9386889 C19.5590878,19.1090771 19.4139751,19.2950466 19.2452627,19.4981051 Z M4.81131568,24.5403909 C2.96250913,24.5403909 1.5,23.0119229 1.5,21.1351391 L1.5,6.71400059 C1.5,5.44237149 1.775497,3.30824613 3.90147389,3.30824613 C4.30413284,3.30824613 4.63055241,2.98150152 4.63055241,2.57844161 C4.63055241,2.1753817 4.30413284,1.84863708 3.90147389,1.84863708 C1.49531393,1.84863708 0,3.71235277 0,6.71400059 L0,21.1346365 C0,23.8166179 2.15911682,26 4.81231992,26 L10.4461085,26 C10.8382353,25.9851616 11.1483984,25.6625087 11.1481282,25.2697112 C11.1478579,24.8769136 10.8372511,24.5546887 10.4451042,24.5403909 L4.81131568,24.5403909 Z" id="Shape" fill="#231815" fill-rule="nonzero"></path>
            <path d="M4.73189985,14.5 C4.32768272,14.5 4,14.8526182 4,15.25 C4,15.6473818 4.32768272,16.015065 4.73189985,16.015065 L14.4975832,16.015065 C14.8912393,16.0007046 15.2028281,15.6372657 15.2028281,15.25 C15.2028281,14.8627343 14.8912393,14.5143604 14.4975832,14.5 L4.73189985,14.5 Z M4.73189985,9 C4.3385064,9.0140866 4.02691222,9.36300248 4.02664111,9.75 C4.02637,10.1369975 4.33751908,10.4853807 4.73089242,10.5 L17.4975832,10.5 C17.8909648,10.4856447 18.2023337,10.1369958 18.2023337,9.75 C18.2023337,9.36300417 17.8909648,9.01435535 17.4975832,9 L4.73189985,9 Z" id="Shape" fill="#231815" fill-rule="nonzero"></path>
        </g>
    </g>
</svg>