<?xml version="1.0" standalone="no"?><!DOCTYPE svg PUBLIC "-//W3C//DTD SVG 1.1//EN" "http://www.w3.org/Graphics/SVG/1.1/DTD/svg11.dtd"><svg t="1536634980362" class="icon" style="" viewBox="0 0 1024 1024" version="1.1" xmlns="http://www.w3.org/2000/svg" p-id="1128" xmlns:xlink="http://www.w3.org/1999/xlink" width="64" height="64"><defs><style type="text/css"></style></defs><path d="M933.4461 662.612213c-18.783809-108.945271-97.673553-180.322925-97.673553-180.32292501 11.268648-98.920964-30.055526-116.461455-30.055526-116.46145499C797.015847 59.777415 533.382495 65.13646999 527.847431 65.281779c-5.542226-0.145309-269.211395-5.504364-277.872658 300.5481 0 0-41.325198 17.539468-30.054503 116.461455 0 0-78.894861 71.377654-97.676623 180.32292499 0 0-10.033517 184.082552 90.159416 22.54343601 0 0 22.544459 61.344137 63.86761 116.455315 0 0-73.897034 25.061792-67.621097 90.16453199 0 0-2.517333 72.618924 157.784606 67.62519 0 0 112.701828-8.756431 146.515958-56.35040199l14.766308 0 0.26299 0 14.765285 0c33.809013 47.596018 146.513912 56.350402 146.513912 56.35040199 160.26203 4.993734 157.781536-67.62519 157.781536-67.62519 6.238075-65.10274-67.620074-90.164532-67.620074-90.16453199 41.324174-55.109132 63.86147-116.455315 63.86147-116.455315C943.437661 846.694765 933.4461 662.612213 933.4461 662.612213L933.4461 662.612213z" p-id="1129"></path></svg>