<?xml version="1.0" encoding="UTF-8"?>
<svg width="26px" height="26px" viewBox="0 0 26 26" version="1.1" xmlns="http://www.w3.org/2000/svg" xmlns:xlink="http://www.w3.org/1999/xlink">
    <!-- Generator: Sketch 51.3 (57544) - http://www.bohemiancoding.com/sketch -->
    <title>service@2x</title>
    <desc>Created with Sketch.</desc>
    <defs></defs>
    <g id="service" stroke="none" stroke-width="1" fill="none" fill-rule="evenodd">
        <g id="客服" transform="translate(3.000000, 2.000000)" fill="#231815" fill-rule="nonzero">
            <path d="M10.5215027,17.2857143 C10.6024406,17.2857143 10.6934958,17.2765885 10.7744338,17.2674628 C11.6040477,17.1762051 12.3122547,16.6286593 12.5651858,15.8712209 C12.5854203,15.8164663 12.5550685,15.752586 12.4943651,15.7252087 C12.4336616,15.6978314 12.3729582,15.7252087 12.3324892,15.7708375 C12.3324892,15.7799633 11.9986202,16.2818803 10.7137303,16.4370183 C10.5215027,16.4643956 10.3393923,16.4735213 10.157282,16.4735213 C9.25684734,16.4735213 8.8521576,16.1541196 8.85215762,16.1541196 C8.81168865,16.1176165 8.74086794,16.1176165 8.69028172,16.1541196 C8.63969549,16.1906226 8.62957826,16.254503 8.65993,16.3001318 C9.07473696,16.9206837 9.78294396,17.2857143 10.5215027,17.2857143" id="Shape"></path>
            <path d="M17.2199686,8.23225807 C16.1396694,5.18610422 13.3524976,3.0133995 10.0683882,3.0133995 C6.79508171,3.0133995 4.01871288,5.16426799 2.92761071,8.18858561 C2.87359574,8.12307693 2.80877779,8.05756825 2.74395987,8.00297766 C3.35973039,4.3235732 6.39537103,1.51761785 10.0683882,1.51761788 C13.7197993,1.51761788 16.744637,4.29081887 17.3820135,7.94838711 C17.3171955,8.04665014 17.2631806,8.13399505 17.2199686,8.23225807 M18.7431904,7.23870969 L18.6999785,7.23870969 C17.7817242,3.08982631 14.2707519,0 10.0683882,0 C5.74719153,0 2.16059831,3.26451613 1.36117694,7.57717123 C0.583361537,7.71910672 0,8.42878414 0,9.29131514 L0,12.719603 C0,13.680397 0.734603439,14.4665012 1.6528577,14.4665012 C2.17140129,14.4665012 2.62512695,14.2153846 2.92761071,13.8223325 C3.66221415,15.8421836 5.14222399,17.4580645 7.03274752,18.3205955 C7.03274752,18.3096774 7.07595948,18.2332506 7.11917145,18.1786601 C7.15158043,18.1349876 7.1839894,18.1022333 7.20559538,18.1022333 C7.23800437,18.1022333 7.25961035,18.1131514 7.28121633,18.1349876 C6.84909667,17.7965261 5.2718599,16.0605459 4.92616416,13.6258065 C4.77492228,12.5558313 5.54193468,11.5076923 6.43858298,11.3330025 C7.87538087,11.0491315 9.30137576,10.7325062 10.7381736,10.4595534 C11.6456249,10.2848635 12.2721984,9.76079405 12.6503031,8.89826303 C12.7367271,8.69081886 12.866363,8.28684865 12.9311809,7.69727047 C12.9419839,7.60992556 13.0176049,7.54441688 13.1040288,7.54441688 C13.1580438,7.54441688 13.2120587,7.57717123 13.2444677,7.62084369 L13.2876797,7.59900746 C13.8494352,8.45062037 14.9729463,10.3503722 15.1349912,12.3483871 C15.3186421,14.6302729 15.2214152,16.2024814 13.5361485,17.7965261 L13.5253455,17.8074442 C13.5037395,17.8292804 13.4929365,17.8729529 13.4929365,17.9057072 C13.4929365,17.9602978 13.5145425,17.9930521 13.5577545,18.0258065 C13.5685575,18.0367246 13.5901634,18.0367246 13.6009664,18.0476427 C13.6117694,18.0476427 13.6225724,18.0585608 13.6333754,18.0585608 C13.6441784,18.0585608 13.6549814,18.0585608 13.6657844,18.0476427 C13.6873903,18.0367246 13.7089963,18.0148883 13.7306023,18.0039702 C15.426672,17.0322581 16.723031,15.4054591 17.3279985,13.4401985 C17.5764673,13.8223325 17.954572,14.0843672 18.3974947,14.1826303 C17.6844972,17.5454094 14.8109015,19.6526055 11.2351113,19.9801489 C11.0190514,19.4233251 10.4897048,19.030273 9.87393432,19.030273 C9.06370995,19.030273 8.41553044,19.6962779 8.41553044,20.5151365 C8.41553044,21.333995 9.07451293,22 9.87393432,22 C10.5221138,22 11.0730664,21.5632754 11.2567172,20.9627792 C15.38346,20.6133995 18.6999785,18.0476427 19.3913699,14.0734491 C20.0071404,13.8114144 20.4284571,13.1781638 20.4284571,12.4575683 L20.4284571,8.99652607 C20.4392601,8.02481391 19.6830507,7.23870969 18.7431904,7.23870969" id="Shape"></path>
        </g>
    </g>
</svg>