<?xml version="1.0" encoding="UTF-8"?>
<svg width="26px" height="26px" viewBox="0 0 26 26" version="1.1" xmlns="http://www.w3.org/2000/svg" xmlns:xlink="http://www.w3.org/1999/xlink">
    <!-- Generator: Sketch 51.3 (57544) - http://www.bohemiancoding.com/sketch -->
    <title>setup</title>
    <desc>Created with Sketch.</desc>
    <defs></defs>
    <g id="setup" stroke="none" stroke-width="1" fill="none" fill-rule="evenodd">
        <g transform="translate(0.000000, 0.750000)">
            <circle id="Oval" fill="#FDCC02" cx="13.5" cy="13.5" r="4.5"></circle>
            <path d="M16.8628571,24.4994286 C16.3874286,24.4994286 15.9268571,24.3062857 15.6297143,23.9794286 C15.2285714,23.5337143 13.9508571,22.3897143 12.896,22.3897143 C11.856,22.3897143 10.5485714,23.5485714 10.1771429,23.9497143 C9.88,24.2765714 9.41942857,24.4697143 8.95885714,24.4697143 C8.736,24.4697143 8.528,24.4251429 8.33485714,24.336 L8.30514286,24.3211429 L5.12571429,22.5382857 L5.096,22.5085714 C4.51657143,22.1074286 4.29371429,21.3051429 4.576,20.6662857 C4.576,20.6662857 4.87314286,19.9828571 4.87314286,19.3737143 C4.87314286,17.5165714 3.35771429,16.0011429 1.50057143,16.0011429 L1.36685714,16.0011429 C0.832,16.0011429 0.401142857,15.5257143 0.267428571,14.7977143 C0.252571429,14.7382857 0,13.3417143 0,12.2571429 C0,11.1577143 0.267428571,9.776 0.267428571,9.71657143 C0.401142857,8.97371429 0.846857143,8.49828571 1.39657143,8.51314286 L1.51542857,8.51314286 C3.37257143,8.51314286 4.888,6.99771429 4.888,5.14057143 C4.888,4.53142857 4.59085714,3.848 4.59085714,3.848 C4.30857143,3.20914286 4.53142857,2.40685714 5.11085714,2.00571429 L5.14057143,1.976 L8.49828571,0.133714286 L8.528,0.118857143 C8.72114286,0.0445714286 8.92914286,0 9.13714286,0 C9.59771429,0 10.0582857,0.193142857 10.3554286,0.505142857 C10.7565714,0.921142857 12.0045714,2.00571429 13.0297143,2.00571429 C14.04,2.00571429 15.288,0.950857143 15.6891429,0.534857143 C15.9862857,0.222857143 16.4468571,0.0445714286 16.9074286,0.0445714286 C17.1302857,0.0445714286 17.3382857,0.0891428571 17.5314286,0.163428571 L17.5611429,0.178285714 L20.8,1.976 L20.8297143,2.00571429 C21.4091429,2.40685714 21.632,3.20914286 21.3497143,3.848 C21.3497143,3.848 21.0525714,4.53142857 21.0525714,5.14057143 C21.0525714,6.99771429 22.568,8.51314286 24.4251429,8.51314286 L24.5588571,8.51314286 C25.0937143,8.49828571 25.5394286,8.97371429 25.688,9.71657143 C25.7028571,9.776 25.9554286,11.1725714 25.9554286,12.2571429 C25.9554286,13.3565714 25.688,14.7382857 25.688,14.7977143 C25.5542857,15.5405714 25.1085714,16.016 24.5588571,16.0011429 L24.44,16.0011429 C22.5828571,16.0011429 21.0674286,17.5165714 21.0674286,19.3737143 C21.0674286,19.9828571 21.3645714,20.6662857 21.3645714,20.6662857 C21.6468571,21.3051429 21.424,22.1074286 20.8445714,22.5085714 L20.8148571,22.5382857 L17.5165714,24.3657143 L17.4868571,24.3805714 C17.2937143,24.4548571 17.0857143,24.4994286 16.8628571,24.4994286 Z M16.7737143,22.9394286 C16.7885714,22.9542857 16.8331429,22.9691429 16.8777143,22.9691429 L19.9531429,21.2605714 C19.8788571,21.0822857 19.5371429,20.2502857 19.5371429,19.3737143 C19.5371429,16.7588571 21.6022857,14.6045714 24.1874286,14.4708571 C24.232,14.2628571 24.4251429,13.104 24.4251429,12.2422857 C24.4251429,11.3805714 24.2171429,10.2217143 24.1874286,10.0137143 C21.6022857,9.88 19.5371429,7.74057143 19.5371429,5.11085714 C19.5371429,4.23428571 19.8788571,3.38742857 19.9531429,3.224 L16.9222857,1.54514286 L16.9074286,1.54514286 C16.8628571,1.54514286 16.8034286,1.56 16.7885714,1.57485714 C16.744,1.63428571 16.2982857,2.08 15.6594286,2.51085714 C14.7234286,3.16457143 13.8468571,3.50628571 13.0297143,3.50628571 C12.2125714,3.50628571 11.3211429,3.16457143 10.3851429,2.496 C9.74628571,2.05028571 9.30057143,1.58971429 9.256,1.53028571 C9.24114286,1.51542857 9.19657143,1.50057143 9.13714286,1.50057143 L9.12228571,1.50057143 L5.98742857,3.23885714 C6.06171429,3.41714286 6.40342857,4.24914286 6.40342857,5.12571429 C6.40342857,7.74057143 4.33828571,9.89485714 1.75314286,10.0285714 C1.70857143,10.2365714 1.51542857,11.3954286 1.51542857,12.2571429 C1.51542857,13.1188571 1.72342857,14.2777143 1.75314286,14.4857143 C4.33828571,14.6194286 6.40342857,16.7588571 6.40342857,19.3885714 C6.40342857,20.2651429 6.06171429,21.112 5.98742857,21.2754286 L8.95885714,22.9394286 C9.00342857,22.9394286 9.048,22.9245714 9.06285714,22.9097143 C9.12228571,22.8502857 9.568,22.3748571 10.2068571,21.9142857 C11.1577143,21.216 12.064,20.8594286 12.896,20.8594286 C13.7428571,20.8594286 14.6491429,21.216 15.6148571,21.9291429 C16.2685714,22.4045714 16.7142857,22.88 16.7737143,22.9394286 Z" id="Shape" fill="#000000" fill-rule="nonzero"></path>
            <path d="M16.4756727,15.7376454 C16.1932857,16.0406808 15.718707,16.0574196 15.4156716,15.7750326 C15.1126363,15.4926456 15.0958974,15.0180669 15.3782845,14.7150316 C15.9354515,14.1171241 16.25,13.3341645 16.25,12.5 C16.25,10.7050746 14.7949254,9.25 13,9.25 C11.2050746,9.25 9.75,10.7050746 9.75,12.5 C9.75,14.2949254 11.2050746,15.75 13,15.75 C13.4142136,15.75 13.75,16.0857864 13.75,16.5 C13.75,16.9142136 13.4142136,17.25 13,17.25 C10.3766474,17.25 8.25,15.1233526 8.25,12.5 C8.25,9.87664744 10.3766474,7.75 13,7.75 C15.6233526,7.75 17.75,9.87664744 17.75,12.5 C17.75,13.7174784 17.2890926,14.8647476 16.4756727,15.7376454 Z" id="Oval" fill="#231815" fill-rule="nonzero"></path>
        </g>
    </g>
</svg>