<?xml version="1.0" standalone="no"?><!DOCTYPE svg PUBLIC "-//W3C//DTD SVG 1.1//EN" "http://www.w3.org/Graphics/SVG/1.1/DTD/svg11.dtd"><svg t="1547802411059" class="icon" style="" viewBox="0 0 1024 1024" version="1.1" xmlns="http://www.w3.org/2000/svg" p-id="2218" xmlns:xlink="http://www.w3.org/1999/xlink" width="200" height="200"><defs><style type="text/css"></style></defs><path d="M839.3 627.3v128.1c0 31.3-25.6 56.9-56.9 56.9H241.7c-31.3 0-56.9-25.6-56.9-56.9V271.6c0-31.3 25.6-56.9 56.9-56.9h185c15.6 0 28.5-12.8 28.5-28.5s-12.8-28.5-28.5-28.5h-185c-62.6 0-113.8 51.2-113.8 113.8v483.8c0 62.6 51.2 113.8 113.8 113.8h540.7c62.6 0 113.8-51.2 113.8-113.8v-128c0-15.6-12.8-28.5-28.5-28.5-15.6 0.1-28.4 12.9-28.4 28.5z m0 0" p-id="2219"></path><path d="M799.5 214.7H611.7c-15.6 0-28.5-12.8-28.5-28.5s12.8-28.5 28.5-28.5h256.1c8.5 0 15.6 2.8 19.9 8.5 5.7 4.3 8.5 11.4 8.5 19.9v256.1c0 15.6-12.8 28.5-28.5 28.5s-28.5-12.8-28.5-28.5V254.6L415.3 680c-11.4 11.4-28.5 11.4-39.8 0-11.4-11.4-11.4-28.5 0-39.8l424-425.5z m0 0" p-id="2220"></path></svg>