<?xml version="1.0" standalone="no"?><!DOCTYPE svg PUBLIC "-//W3C//DTD SVG 1.1//EN" "http://www.w3.org/Graphics/SVG/1.1/DTD/svg11.dtd"><svg t="1547705023850" class="icon" style="" viewBox="0 0 1024 1024" version="1.1" xmlns="http://www.w3.org/2000/svg" p-id="3777" xmlns:xlink="http://www.w3.org/1999/xlink" width="200" height="200"><defs><style type="text/css"></style></defs><path d="M564.5 607m-352.1 0a352.1 352.1 0 1 0 704.2 0 352.1 352.1 0 1 0-704.2 0Z" fill="#FDE044" p-id="3778"></path><path d="M858.4 521.1c-15.6 8.8-35.2 13.5-58.1 13.5-42.3 0-80.6-22.1-103.1-59.6-1.7-3.5-4.3-9.4-9.3-15-5.8-6.5-16-14.4-33.1-14.4-13.8 0-26.2 5.8-33.3 14.8-4.7 5.4-7.3 10.8-9.1 14.8-22.1 37.1-60.3 59.5-101.6 59.7-41.9-0.2-80-22.5-102.4-59.8-1.5-3.3-4.1-8.8-8.2-13.5-16.2-20-52.7-19.1-66.8-1.5-5.2 6-8 11.9-9.7 16-22.3 37.1-60.9 59.3-102.7 59.5-22.3 0-41.5-4.4-57-12.9-39.6-21.7-64.2-64.3-64.2-110.6 0-13.7 2.2-27.5 6.7-41 0.4-1 0.6-2.1 0.7-3.1l86-210.1c1.7-5.4 7.1-21.7 33.9-21.7H797c11 0.8 30 2.7 36.7 23.1l80.4 207.2c0.4 1.5 0.7 2.9 1.1 4 4.5 13.5 6.7 27.1 6.7 40.8-0.4 45.6-24.6 87.7-63.5 109.8z m123-170.6c0-0.6-0.2-1-0.2-1.5-0.4-2.1-0.9-4-1.7-6l-81.3-209c-14.1-43.3-54.3-69.8-101.6-70H226.9c-47.8 0-85.1 26.4-98.5 67.9L41.1 345.1c-0.4 1.3-0.9 3.1-1.3 5-6.3 20.2-9.5 40.8-9.5 61.6 0 72.9 38.7 139.5 100.9 173.7 25.5 14 55.6 21.2 89.5 21.2 56.8-0.2 109.4-26 145.4-70.2 35.7 43.9 87.9 69.5 144.6 69.8 56.2-0.4 108.3-26.2 143.9-70 35.9 44.3 88.6 69.8 145.7 69.8 34.6-0.2 65.1-7.7 91-22.3 61.2-34.6 99.2-100.8 99.2-173 0.2-20.6-3.1-41.4-9.1-60.2zM891.1 635.8c-19.2 0-34.6 16-34.6 35.8v195.3c0 11.2-8.7 20.2-19.5 20.2l-651.4 0.4c-10.8 0-19.5-9-19.5-20l-0.2-191.8c0-19.8-15.6-35.8-34.6-35.8-19.2 0-34.6 16.2-34.6 35.8l0.2 191.8c0 50.4 39.8 91.6 88.8 91.6l651.6-0.4c48.8-0.2 88.6-41.2 88.6-91.8V671.6c-0.2-19.6-15.7-35.8-34.8-35.8z" fill="#171900" p-id="3779"></path><path d="M821.7 363.6H252.8c-19.7 0-35.5-14.1-35.5-31.5s15.9-31.5 35.5-31.5h568.7c19.7 0 35.5 14.1 35.5 31.5 0.3 17.5-15.8 31.5-35.3 31.5z" fill="#171900" p-id="3780"></path></svg>