<?xml version="1.0" encoding="UTF-8"?>
<svg width="26px" height="26px" viewBox="0 0 26 26" version="1.1" xmlns="http://www.w3.org/2000/svg" xmlns:xlink="http://www.w3.org/1999/xlink">
    <!-- Generator: Sketch 51.3 (57544) - http://www.bohemiancoding.com/sketch -->
    <title>register_pre</title>
    <desc>Created with Sketch.</desc>
    <defs></defs>
    <g id="register_pre" stroke="none" stroke-width="1" fill="none" fill-rule="evenodd">
        <g transform="translate(0.750000, 0.000000)">
            <rect id="Rectangle-4" fill="#FDCC02" x="1" y="4" width="22" height="8" rx="1"></rect>
            <polygon id="Shape" fill="#231815" fill-rule="nonzero" points="15.2351049 2.8590138 9.65714286 2.8590138 9.65714286 4.57328585 15.2351049 4.57328585 15.2351049 2.8590138"></polygon>
            <path d="M21.5881104,2.97160283 L19.509623,2.97160283 L19.509623,4.64499179 L21.667846,4.64499179 C22.3026174,4.64499179 22.8384545,5.18588519 22.8384545,5.82610502 L22.8384545,9.72057237 L1.6581891,9.72057237 L1.6581891,5.82593077 C1.6581891,5.18588519 2.19402615,4.64499179 2.82879761,4.64499179 L5.00120348,4.64499179 L5.00120348,2.97142857 L2.92565647,2.97142857 C1.31624273,2.97142857 0,4.29978888 0,5.9240374 L0,23.0475654 C0,24.6716397 1.26798626,26 2.87722704,26 L21.5881104,26 C23.1971782,26 24.5142857,24.6716397 24.5142857,23.0475654 L24.5142857,5.9240374 C24.5142857,4.29996314 23.1970052,2.97160283 21.5881104,2.97160283 Z M22.8384545,23.1346939 C22.8384545,23.775088 22.3024445,24.3154586 21.667846,24.3154586 L2.82862465,24.3154586 C2.19385319,24.3154586 1.65801614,23.7749137 1.65801614,23.1346939 L1.65801614,11.3974465 L22.8384545,11.3974465 L22.8382815,23.1346939 L22.8384545,23.1346939 Z" id="Shape" fill="#231815" fill-rule="nonzero"></path>
            <path d="M7.18,7.42857143 C7.85392578,7.42857143 8.17142857,6.92064554 8.17142857,6.29341655 L8.17142857,1.13550995 C8.17142857,0.508458489 7.89677246,0 7.18,0 C6.46322754,0 6.1995253,0.508458489 6.2,1.13550995 L6.2,6.29359408 C6.19953082,6.91321251 6.50607422,7.42857143 7.18,7.42857143 Z M17.4800006,7.42857143 C18.1539264,7.42857143 18.4714292,6.92064554 18.4714292,6.29341655 L18.4714292,1.13550995 C18.4714292,0.508458489 18.1967731,0 17.4800006,0 C16.7632282,0 16.4995259,0.508458489 16.5000006,1.13550995 L16.5000006,6.29359408 C16.4995315,6.91321251 16.8060749,7.42857143 17.4800006,7.42857143 Z" id="Shape" fill="#231815" fill-rule="nonzero"></path>
            <path d="M17.4990046,15.4834199 L10.9275389,22.1455037 C10.772412,22.3027311 10.5581425,22.4 10.3214368,22.4 C10.0847504,22.4 9.87046162,22.3027506 9.71537329,22.1455037 L6.00107246,18.3799729 C5.84592635,18.2227455 5.75,18.0054816 5.75,17.7655307 C5.75,17.2855703 6.13374393,16.8965531 6.60713598,16.8965531 C6.84384162,16.8965531 7.05811117,16.9938025 7.21323802,17.1510885 L10.3214368,20.3021184 L16.2868005,14.2545354 C16.4418888,14.0972494 16.6561969,14 16.892864,14 C17.3662561,14 17.75,14.3890172 17.75,14.8689776 C17.7500192,15.1088895 17.6541121,15.3261925 17.4990046,15.4834199 Z" id="Shape" fill="#231815" fill-rule="nonzero"></path>
        </g>
    </g>
</svg>