<?xml version="1.0" encoding="UTF-8"?>
<svg width="26px" height="26px" viewBox="0 0 26 26" version="1.1" xmlns="http://www.w3.org/2000/svg" xmlns:xlink="http://www.w3.org/1999/xlink">
    <!-- Generator: Sketch 51.3 (57544) - http://www.bohemiancoding.com/sketch -->
    <title>register</title>
    <desc>Created with Sketch.</desc>
    <defs></defs>
    <g id="register" stroke="none" stroke-width="1" fill="none" fill-rule="evenodd">
        <g transform="translate(0.750000, 0.000000)">
            <rect id="Rectangle-4" fill="#FDCC02" x="1" y="4" width="22" height="8" rx="1"></rect>
            <polygon id="Shape" fill="#231815" fill-rule="nonzero" points="15.2351049 2.8590138 9.65714286 2.8590138 9.65714286 4.57328585 15.2351049 4.57328585 15.2351049 2.8590138"></polygon>
            <path d="M21.5881104,2.97160283 L19.509623,2.97160283 L19.509623,4.64499179 L21.667846,4.64499179 C22.3026174,4.64499179 22.8384545,5.18588519 22.8384545,5.82610502 L22.8384545,9.72057237 L1.6581891,9.72057237 L1.6581891,5.82593077 C1.6581891,5.18588519 2.19402615,4.64499179 2.82879761,4.64499179 L5.00120348,4.64499179 L5.00120348,2.97142857 L2.92565647,2.97142857 C1.31624273,2.97142857 0,4.29978888 0,5.9240374 L0,23.0475654 C0,24.6716397 1.26798626,26 2.87722704,26 L21.5881104,26 C23.1971782,26 24.5142857,24.6716397 24.5142857,23.0475654 L24.5142857,5.9240374 C24.5142857,4.29996314 23.1970052,2.97160283 21.5881104,2.97160283 Z M22.8384545,23.1346939 C22.8384545,23.775088 22.3024445,24.3154586 21.667846,24.3154586 L2.82862465,24.3154586 C2.19385319,24.3154586 1.65801614,23.7749137 1.65801614,23.1346939 L1.65801614,11.3974465 L22.8384545,11.3974465 L22.8382815,23.1346939 L22.8384545,23.1346939 Z M7.18,7.42857143 C6.50607422,7.42857143 6.19953082,6.91321251 6.2,6.29359408 L6.2,1.13550995 C6.1995253,0.508458489 6.46322754,-4.4408921e-16 7.18,-4.4408921e-16 C7.89677246,-4.4408921e-16 8.17142857,0.508458489 8.17142857,1.13550995 L8.17142857,6.29341655 C8.17142857,6.92064554 7.85392578,7.42857143 7.18,7.42857143 Z M17.4800006,7.42857143 C16.8060749,7.42857143 16.4995315,6.91321251 16.5000006,6.29359408 L16.5000006,1.13550995 C16.4995259,0.508458489 16.7632282,-4.4408921e-16 17.4800006,-4.4408921e-16 C18.1967731,-4.4408921e-16 18.4714292,0.508458489 18.4714292,1.13550995 L18.4714292,6.29341655 C18.4714292,6.92064554 18.1539264,7.42857143 17.4800006,7.42857143 Z" id="Combined-Shape" fill="#231815" fill-rule="nonzero"></path>
            <rect id="Rectangle-13" fill="#231815" x="5" y="14" width="2.5" height="2.5" rx="0.5"></rect>
            <rect id="Rectangle-13-Copy-3" fill="#231815" x="5" y="19" width="2.5" height="2.5" rx="0.5"></rect>
            <rect id="Rectangle-13-Copy" fill="#231815" x="11" y="14" width="2.5" height="2.5" rx="0.5"></rect>
            <rect id="Rectangle-13-Copy-4" fill="#231815" x="11" y="19" width="2.5" height="2.5" rx="0.5"></rect>
            <rect id="Rectangle-13-Copy-2" fill="#231815" x="17" y="14" width="2.5" height="2.5" rx="0.5"></rect>
        </g>
    </g>
</svg>
