<?xml version="1.0" encoding="UTF-8"?>
<svg width="13px" height="13px" viewBox="0 0 13 13" version="1.1" xmlns="http://www.w3.org/2000/svg" xmlns:xlink="http://www.w3.org/1999/xlink">
    <!-- Generator: Sketch 51.3 (57544) - http://www.bohemiancoding.com/sketch -->
    <title>telephone</title>
    <desc>Created with Sketch.</desc>
    <defs>
        <path d="M4.27274029,8.69091019 C2.38682524,6.80485316 0.12364199,4.09340655 0.0525048544,1.90874393 C0.112992718,1.59906311 1.20532403,0.581276699 1.82809345,0.147212379 C1.93487015,0.0725254854 2.03085558,0.0546347087 2.0948932,0.0546347087 C2.14118204,0.0546347087 2.16972209,0.0654259709 2.18406311,0.0688337379 C2.32619539,0.268046117 3.89547209,2.64510558 4.0912767,2.95123665 C4.10192597,2.98673422 4.0985182,3.12915049 3.99159951,3.32850485 C3.83512621,3.62739442 3.17685922,4.77666383 3.17685922,4.77666383 C3.09848058,4.91198058 3.09848058,5.0755534 3.17685922,5.21072816 C3.19460801,5.24636772 3.68916019,6.07204126 5.29038471,7.67326578 C6.89175121,9.27463228 7.72083252,9.76918447 7.7563301,9.79048301 C7.88809709,9.86871966 8.05536165,9.87226942 8.19053641,9.79389078 C8.19053641,9.79389078 9.33639806,9.13562379 9.63528762,8.97560073 C9.8345,8.87237379 9.98046602,8.86882403 10.0124138,8.8794733 C10.2863131,9.04673786 12.7096614,10.6587536 12.8875752,10.7797294 C12.9125655,10.8118192 12.9409636,10.9540934 12.8127464,11.135557 C12.378824,11.7617342 11.3645874,12.8542075 11.0656978,12.9112876 C8.87024393,12.8435583 6.15865534,10.5768252 4.27274029,8.69091019 Z" id="path-1"></path>
    </defs>
    <g id="telephone" stroke="none" stroke-width="1" fill="none" fill-rule="evenodd">
        <g transform="translate(6.500000, 6.500000) scale(-1, 1) translate(-6.500000, -6.500000) ">
            <mask id="mask-2" fill="white">
                <use xlink:href="#path-1"></use>
            </mask>
            <use id="telephone2" stroke="#4A4A4A" fill="#4A4A4A" xlink:href="#path-1"></use>
        </g>
    </g>
</svg>