<?xml version="1.0" standalone="no"?><!DOCTYPE svg PUBLIC "-//W3C//DTD SVG 1.1//EN" "http://www.w3.org/Graphics/SVG/1.1/DTD/svg11.dtd"><svg t="1547794710042" class="icon" style="" viewBox="0 0 1024 1024" version="1.1" xmlns="http://www.w3.org/2000/svg" p-id="3630" xmlns:xlink="http://www.w3.org/1999/xlink" width="200" height="200"><defs><style type="text/css"></style></defs><path d="M452.3 908.4S202.1 802.1 90 563.5c-51.6-109.8-51.9-256.9 48.6-361.2C239.1 98.1 402 98 502.5 202.3c100.5-104.2 263.4-104.2 363.9 0C967 306.6 969.6 466.1 915 563.5 779.8 805.4 561.4 906.4 561.4 906.4c-29.8 16.8-78.8 17.3-109.1 2z" fill="#171900" p-id="3631"></path><path d="M461 846.9s-213-90.5-308.5-293.7c-44-93.5-44.2-218.7 41.4-307.5 85.5-88.7 224.3-63.2 309.8 25.7C589.2 182.7 728 157 813.5 245.7c85.6 88.8 87.8 224.6 41.4 307.5-115.1 206-301.1 292-301.1 292-25.3 14.3-67 14.7-92.8 1.7z" fill="#FFFFFF" p-id="3632"></path></svg>