<?xml version="1.0" standalone="no"?><!DOCTYPE svg PUBLIC "-//W3C//DTD SVG 1.1//EN" "http://www.w3.org/Graphics/SVG/1.1/DTD/svg11.dtd"><svg t="1547794721520" class="icon" style="" viewBox="0 0 1024 1024" version="1.1" xmlns="http://www.w3.org/2000/svg" p-id="3863" xmlns:xlink="http://www.w3.org/1999/xlink" width="200" height="200"><defs><style type="text/css"></style></defs><path d="M954.9 406.8c-7.7-20.9-27.6-36.3-51.5-39.6l-232.6-32.4-101.1-197c-10.6-20.7-33.4-33.9-58.4-33.9s-47.8 13.2-58.4 33.9l-101.1 197-232.6 32.4c-23.9 3.3-43.7 18.7-51.5 39.6-7.7 21-1.9 44.1 15 59.9l170.4 159.7-39.5 221.5c-4 22.3 6.3 44.7 26.5 57.7 11.1 7.2 24.1 10.8 37.2 10.8 10.7 0 21.5-2.5 31.2-7.4l202.8-102.4L714.1 909c9.7 4.9 20.5 7.4 31.2 7.4 13 0 26.1-3.6 37.2-10.8 20.2-13.1 30.4-35.4 26.5-57.7l-39.6-221.5 170.5-159.7c16.9-15.8 22.7-38.9 15-59.9z" fill="#171900" p-id="3864"></path><path d="M883.7 429.6c-6.5-17.5-23.1-30.3-43-33.1l-194.4-27.1-84.5-164.6c-8.9-17.3-27.9-28.3-48.8-28.3s-39.9 11.1-48.8 28.3l-84.5 164.6-194.4 27.1c-20 2.8-36.6 15.6-43 33.1s-1.6 36.9 12.5 50.1l142.4 133.4-33 185.1c-3.4 18.6 5.3 37.3 22.1 48.3 9.3 6 20.2 9 31.1 9 9 0 18-2.1 26.1-6.2L513 763.8l169.5 85.6c8.1 4.1 17.1 6.2 26.1 6.2 10.9 0 21.8-3 31.1-9 16.9-10.9 25.4-29.6 22.1-48.3l-33.1-185.1 142.5-133.4c14.1-13.3 18.9-32.7 12.5-50.2z" fill="#FFFFFF" p-id="3865"></path></svg>