<?xml version="1.0" encoding="UTF-8"?>
<svg width="14px" height="14px" viewBox="0 0 14 14" version="1.1" xmlns="http://www.w3.org/2000/svg" xmlns:xlink="http://www.w3.org/1999/xlink">
    <!-- Generator: Sketch 51.3 (57544) - http://www.bohemiancoding.com/sketch -->
    <title>wait_icon</title>
    <desc>Created with Sketch.</desc>
    <defs></defs>
    <g id="Page-1" stroke="none" stroke-width="1" fill="none" fill-rule="evenodd">
        <g id="我的订单-退款中详情" transform="translate(-16.000000, -378.000000)" fill="#DDDDDD">
            <path d="M23,392 C19.1340068,392 16,388.865993 16,385 C16,381.134007 19.1340068,378 23,378 C26.8659932,378 30,381.134007 30,385 C30,388.865993 26.8659932,392 23,392 Z M23,386.25 C23.6903559,386.25 24.25,385.690356 24.25,385 C24.25,384.309644 23.6903559,383.75 23,383.75 C22.3096441,383.75 21.75,384.309644 21.75,385 C21.75,385.690356 22.3096441,386.25 23,386.25 Z M19.25,386.25 C19.9403559,386.25 20.5,385.690356 20.5,385 C20.5,384.309644 19.9403559,383.75 19.25,383.75 C18.5596441,383.75 18,384.309644 18,385 C18,385.690356 18.5596441,386.25 19.25,386.25 Z M26.75,386.25 C27.4403559,386.25 28,385.690356 28,385 C28,384.309644 27.4403559,383.75 26.75,383.75 C26.0596441,383.75 25.5,384.309644 25.5,385 C25.5,385.690356 26.0596441,386.25 26.75,386.25 Z" id="wait_icon"></path>
        </g>
    </g>
</svg>