<?xml version="1.0" standalone="no"?><!DOCTYPE svg PUBLIC "-//W3C//DTD SVG 1.1//EN" "http://www.w3.org/Graphics/SVG/1.1/DTD/svg11.dtd"><svg t="1547631304140" class="icon" style="" viewBox="0 0 1024 1024" version="1.1" xmlns="http://www.w3.org/2000/svg" p-id="3653" xmlns:xlink="http://www.w3.org/1999/xlink" width="200" height="200"><defs><style type="text/css"></style></defs><path d="M354 855.6c-11.5 0-22.6-4.6-30.8-12.7L12.7 532.4C4.6 524.2 0 513.2 0 501.6c0-11.5 4.6-22.6 12.7-30.8 8.2-8.2 19.2-12.7 30.8-12.7 11.5 0 22.6 4.6 30.8 12.7L354 750.5l592.8-592.8c8.2-8.2 19.2-12.7 30.8-12.7 11.5 0 22.6 4.6 30.8 12.7 8.2 8.2 12.7 19.2 12.7 30.8 0 11.5-4.6 22.6-12.7 30.8L384.7 842.8c-8.2 8.2-19.2 12.8-30.7 12.8z m0 0" fill="#FFFFFF" p-id="3654"></path><path d="M512.9 62c-17.3 0-34.2 1-50.9 3-40.9 4.6-80.1 14.8-117 29.7 0 0 303.9 300.7 312 311.9V85.9c-9.1-3.1-18.3-5.9-27.6-8.4C592.2 67.4 553.2 62 512.9 62z" fill="#FA5452" p-id="3655"></path><path d="M830.3 192.6c-12.2-12.2-24.9-23.4-38.1-33.9-32.3-25.6-67.2-46.2-103.7-61.7 0 0 2.2 427.4 0 441l226.8-226.8c-4.2-8.6-8.8-17.1-13.6-25.4-19.3-33.3-42.9-64.8-71.4-93.2z" fill="#6467EF" p-id="3656"></path><path d="M929.8 346.9S629.2 650.7 617.9 658.8h320.7c3.1-9.1 5.9-18.3 8.4-27.6 10-37.2 15.5-76.1 15.5-116.5 0-17.2-1.1-34.2-3.1-50.9-4.5-40.9-14.7-80.1-29.6-116.9z" fill="#5283F0" p-id="3657"></path><path d="M483.8 692.6l226.8 226.8c8.6-4.3 17.1-8.8 25.5-13.6 33.3-19.2 64.8-42.9 93.3-71.4 12.1-12.1 23.4-24.9 33.8-38.1 25.6-32.2 46.2-67.1 61.7-103.7 0-0.1-427.4 2.2-441.1 0z" fill="#00B1FE" p-id="3658"></path><path d="M367.5 621.3V942c9.1 3.1 18.3 5.9 27.6 8.4 37.2 10 76.1 15.5 116.5 15.5 17.2 0 34.2-1.1 50.8-3 40.9-4.7 80.1-14.8 117-29.7 0 0-303.8-300.6-311.9-311.9z" fill="#66D020" p-id="3659"></path><path d="M335.5 487.6L108.8 714.3c4.2 8.7 8.8 17.2 13.6 25.5 19.2 33.4 42.9 64.8 71.4 93.3 12.1 12.2 24.9 23.4 38.1 33.8 32.3 25.6 67.1 46.2 103.7 61.7 0.1 0.1-2.2-427.3-0.1-441z" fill="#9AD122" p-id="3660"></path><path d="M77.3 396.9c-10 37.2-15.5 76.1-15.5 116.5 0 17.2 1.1 34.2 3 50.9 4.6 40.9 14.8 80.1 29.7 116.9 0 0 300.6-303.8 311.9-311.9H85.7c-3.1 9-5.9 18.3-8.4 27.6z" fill="#FFC817" p-id="3661"></path><path d="M286.1 123.9c-33.4 19.2-64.8 42.9-93.3 71.4-12.3 12.2-23.4 25-33.9 38.1a448.16 448.16 0 0 0-61.7 103.7s427.5-2.3 441.1-0.1L311.6 110.3c-8.7 4.3-17.2 8.8-25.5 13.6z" fill="#FF7613" p-id="3662"></path></svg>