<?xml version="1.0" standalone="no"?><!DOCTYPE svg PUBLIC "-//W3C//DTD SVG 1.1//EN" "http://www.w3.org/Graphics/SVG/1.1/DTD/svg11.dtd"><svg t="1548237514478" class="icon" style="" viewBox="0 0 1024 1024" version="1.1" xmlns="http://www.w3.org/2000/svg" p-id="2221" xmlns:xlink="http://www.w3.org/1999/xlink" width="200" height="200"><defs><style type="text/css"></style></defs><path d="M1009.6 448.9c-5.1 14.9-18.5 25.7-33.9 26.7-15.9 1-30.8-7.2-38-21.1-4.6-9.2-5.7-19.5-2.6-29.8 21.1-64.7 6.2-136.1-40.1-187-45.7-50.3-115.6-73-182.9-59.1-10.3 2.1-20.5 0-29.3-5.7s-14.9-14.4-17-24.7c-4.6-21.1 9.2-41.6 30.3-46.2 91.4-19.5 190.6 8.7 257.4 82.7 66.3 75.6 84.3 175.8 56.1 264.2zM738.3 304c-8.7 2.1-18 0-25.2-4.6-7.7-4.6-12.8-12.3-14.4-21.1-4.1-18 7.7-36 26.2-39.6 46.2-9.8 94 5.7 125.4 40.1 32.9 36 41.6 85.3 27.7 127.9-2.6 8.7-8.7 15.4-16.4 19.5-8.2 4.1-17.5 4.6-25.7 2.1-17.5-5.7-27.2-24.7-21.6-42.1 7.2-21.6 2.1-45.7-13.4-62.7-16.9-17-40-24.7-62.6-19.5z m29.8 189.5c58.6 18 123.8 61.6 123.8 138.7 0 127.4-184.9 287.7-462.9 287.7-212.2 0-429-102.2-429-269.7C0.6 561.9 56.6 460.7 153.2 364.6c128.4-127.9 279-186 335.5-130 25.2 24.7 27.2 67.8 11.3 118.7-8.2 25.7 24.1 11.3 24.1 11.3 103.8-43.2 194.7-45.7 228.1 1 17.5 25.2 15.9 60.1-0.5 101.2-7.7 19.6 2 22.1 16.4 26.7z m-338 365.8c169-16.4 297.5-119.2 286.7-229.6C706 519.8 559.6 443.7 390.6 460.2 221.6 476.6 93.1 579.9 103.9 689.8c10.7 110.4 156.6 186 326.2 169.5z m16.9-314.4c83.2 21.6 125.9 99.7 92 175.2-34.4 77.6-133.6 118.7-217.8 92-82.2-26.2-116.6-105.8-80.7-177.8 34.9-70.4 125.9-109.9 206.5-89.4z m-61.6 183.4c15.9-26.2 7.7-56-19-67.3-26.2-10.8-60.1 0.5-76 25.7-16.4 25.2-8.7 55.5 17.5 67.3 26.1 11.8 61 0 77.5-25.7z" fill="#C31E1F" p-id="2222"></path><path d="M549.2 651.3c-9.8-78.1-84.3-121.2-175.2-109.9-90.9 11.3-156.7 89.4-146.4 167 9.8 78.1 90.4 121.2 181.4 109.9 90.4-11.4 150-88.9 140.2-167zM355.1 751.4c-30.3 10.8-61.6 2.6-70.9-23.1-9.2-25.2 7.7-55 37.5-65.8 30.3-10.8 59.6-1.5 68.8 23.6 9.8 25.3-5.1 54.6-35.4 65.3z" fill="#040000" p-id="2223"></path></svg>
