<?xml version="1.0" encoding="UTF-8"?>
<svg width="18px" height="16px" viewBox="0 0 18 16" version="1.1" xmlns="http://www.w3.org/2000/svg" xmlns:xlink="http://www.w3.org/1999/xlink">
    <!-- Generator: Sketch 51.3 (57544) - http://www.bohemiancoding.com/sketch -->
    <title>scanning</title>
    <desc>Created with Sketch.</desc>
    <defs></defs>
    <g id="scanning" stroke="none" stroke-width="1" fill="none" fill-rule="evenodd">
        <g fill="#231815" fill-rule="nonzero">
            <path d="M12.5524286,1.61149826 L13.9178572,1.61149826 C14.6802857,1.61149826 15.3,2.23289198 15.3,2.99738675 L15.3,4.36651569 C15.2999575,4.65441051 15.4531081,4.92045451 15.7017514,5.06441421 C15.9503947,5.20837392 16.2567481,5.20837392 16.5053915,5.06441421 C16.7540348,4.92045451 16.9071853,4.65441051 16.9071428,4.36651569 L16.9071428,2.99738675 C16.905725,1.342565 15.5682064,0.0014216903 13.9178572,8.85259395e-09 L12.5524286,8.85259395e-09 C12.2653118,-4.25713659e-05 11.9999869,0.153523031 11.8564163,0.402840165 C11.7128456,0.6521573 11.7128456,0.959340968 11.8564163,1.2086581 C11.9999869,1.45797524 12.2653118,1.61154084 12.5524286,1.61149826 Z M1.89642857,5.1722648 C2.34,5.1722648 2.7,4.81128919 2.7,4.36651569 L2.7,2.99738675 C2.7,2.23289198 3.31971428,1.61149826 4.08214285,1.61149826 L5.44757143,1.61149826 C5.73468816,1.61154084 6.00001313,1.45797524 6.14358375,1.2086581 C6.28715437,0.959340968 6.28715437,0.6521573 6.14358375,0.402840165 C6.00001313,0.153523031 5.73468816,-4.25713659e-05 5.44757143,8.85258771e-09 L4.08214285,8.85258771e-09 C2.43179359,0.0014216903 1.09427499,1.342565 1.09285715,2.99738675 L1.09285715,4.36651569 C1.09285715,4.81257841 1.45285715,5.17226482 1.89642857,5.1722648 Z M5.44757143,14.2456446 L4.08214285,14.2456446 C3.31910023,14.2449339 2.70070882,13.6248666 2.7,12.8597561 L2.7,11.489338 C2.70004247,11.2014432 2.5468919,10.9353991 2.2982486,10.7914394 C2.0496053,10.6474797 1.74325185,10.6474797 1.49460855,10.7914394 C1.24596525,10.9353991 1.09281469,11.2014432 1.09285715,11.489338 L1.09285715,12.8597561 C1.09498215,14.5142837 2.43208695,15.8550121 4.08214285,15.8571428 L5.44757143,15.8571428 C5.73468816,15.8571854 6.00001313,15.7036198 6.14358375,15.4543027 C6.28715437,15.2049856 6.28715437,14.8978019 6.14358375,14.6484848 C6.00001313,14.3991676 5.73468816,14.245602 5.44757143,14.2456446 Z M16.1035714,10.6835889 C15.6597712,10.6835889 15.3,11.044335 15.3,11.489338 L15.3,12.8597561 C15.3,13.6229617 14.6802857,14.2456446 13.9178572,14.2456446 L12.5524286,14.2456446 C12.2653118,14.245602 11.9999869,14.3991676 11.8564163,14.6484848 C11.7128456,14.8978019 11.7128456,15.2049856 11.8564163,15.4543027 C11.9999869,15.7036198 12.2653118,15.8571854 12.5524286,15.8571428 L13.9178572,15.8571428 C15.5679131,15.8550121 16.9050179,14.5142837 16.9071428,12.8597561 L16.9071428,11.489338 C16.9071428,11.044335 16.5473717,10.6835889 16.1035714,10.6835889 Z M17.1964286,7.12282229 L0.803571434,7.12282229 C0.359771185,7.12282229 5.43498553e-17,7.48356847 0,7.92857143 C-5.43498553e-17,8.37357439 0.359771185,8.73432056 0.803571434,8.73432056 L17.1964286,8.73432056 C17.6402288,8.73432056 18,8.37357439 18,7.92857143 C18,7.48356847 17.6402288,7.12282229 17.1964286,7.12282229 Z"></path>
        </g>
    </g>
</svg>