<?xml version="1.0" encoding="UTF-8"?>
<svg width="216px" height="216px" viewBox="0 0 216 216" version="1.1" xmlns="http://www.w3.org/2000/svg" xmlns:xlink="http://www.w3.org/1999/xlink">
    <!-- Generator: Sketch 51 (57462) - http://www.bohemiancoding.com/sketch -->
    <title>logo_216</title>
    <desc>Created with Sketch.</desc>
    <defs></defs>
    <g id="首页" stroke="none" stroke-width="1" fill="none" fill-rule="evenodd">
        <g id="logo_216">
            <polygon id="Fill-1" fill="#FDCC02" points="0 215.052197 215.052197 215.052197 215.052197 0 0 0"></polygon>
            <g id="Group-34" transform="translate(13.983607, 30.921049)">
                <path d="M170.0936,73.7393311 C168.233403,76.6228721 168.743305,75.8296918 166.858321,78.7486426 C165.221207,81.2828066 163.188682,82.0228721 161.277731,80.7811672 C159.373862,79.5441836 159.212157,77.3865443 160.849272,74.8488393 C167.153403,65.0769049 171.06501,59.014741 177.377403,49.2463475 C178.646256,47.2799213 180.21019,45.8068721 182.789207,45.8670689 C185.893469,45.9402492 188.429993,49.1613639 187.5896,52.1582164 C187.311043,53.1555934 186.881403,54.1494295 186.325469,55.0228721 C182.786846,60.5857574 179.195108,66.1167738 175.616354,71.6525115 C174.063043,74.0580197 172.93819,74.4923803 170.0936,73.7393311" id="Fill-2" fill="#231815"></path>
                <path d="M12.7065574,62.9959869 C10.9998033,60.3012984 9.32491803,57.6573639 7.65003279,55.0157902 C7.15783607,54.2379541 6.64321311,53.470741 6.17816393,52.678741 C5.45934426,51.454741 5.67770492,50.2708721 6.7104918,49.5839213 C7.7904918,48.8651016 9.03691803,49.1483803 9.83245902,50.381823 C11.783541,53.405823 13.6933115,56.4546098 15.6184262,59.4927738 C15.8615738,59.8740197 16.1023607,60.2552656 16.3313443,60.6152656 C18.0003279,59.9495607 18.2281311,59.364118 17.2909508,57.8273311 C15.6561967,55.1491672 13.943541,52.5193967 12.2757377,49.863659 C11.988918,49.4033311 11.6879344,48.9323803 11.5179672,48.4260197 C11.207541,47.5041836 11.4530492,46.6909377 12.2509508,46.0936918 C13.0889836,45.4669377 13.9695082,45.4551344 14.8028197,46.0641836 C15.164,46.3262164 15.4708852,46.7003803 15.7152131,47.0816262 C17.4314098,49.7562492 19.1735738,52.4178885 20.8118689,55.1420852 C22.0099016,57.1309377 22.7110164,59.2661508 21.6558033,61.5654295 C21.3855082,62.1508721 20.985377,62.7339541 20.5002623,63.1565115 C19.8133115,63.756118 19.8499016,64.2199869 20.3208525,64.9517902 C23.5301639,69.948118 23.6422951,70.2927738 26.8102951,75.3174295 C27.9457705,77.1197902 27.8501639,78.6341508 26.5883934,79.8675934 C25.3761967,81.0550033 23.3802623,81.0620852 22.1940328,79.8439869 C21.7891803,79.4285115 21.4575082,78.9351344 21.1447213,78.4429377 C18.1136393,73.6779541 18.1537705,73.5870689 15.1309508,68.8173639 C14.8630164,68.3936262 14.598623,67.9722492 14.3448525,67.5744787 C13.299082,67.7869377 12.3359344,68.1327738 11.3633443,68.1552 C8.89527869,68.2071344 7.21213115,66.7388066 5.93619672,64.8479213 C4.08780328,62.1083803 2.35980328,59.288577 0.616459016,56.4817574 C-0.219213115,55.1397246 -0.010295082,53.8720525 1.07206557,53.1579541 C2.21698361,52.4025443 3.41855738,52.7353967 4.34393443,54.1624131 C5.98459016,56.6883148 7.57567213,59.2449049 9.19154098,61.7885115 C9.41462295,62.1402492 9.63534426,62.4967082 9.89265574,62.8260197 C10.8569836,64.0712656 11.265377,64.1113967 12.7065574,62.9959869" id="Fill-4" fill="#231815"></path>
                <path d="M58.3381508,117.499751 C47.3894295,115.392866 27.9352656,110.094374 20.6703475,98.2840131 C18.2105443,94.283882 15.956118,85.5447344 19.8264131,77.8631607 L19.9940197,77.565718 C21.932118,74.4968656 27.5599213,69.2538492 35.0172328,71.3784393 C39.8211672,72.7488 44.1753967,76.6722098 52.8543475,84.488341 L55.0237902,86.4417836 L50.2918557,91.7084066 L48.1141508,89.7502426 C40.7465443,83.1144393 36.2990689,79.1095869 33.0755934,78.1889311 C29.2525115,77.1030295 26.5778885,80.5106361 26.0561836,81.241259 C23.5810361,86.3945705 25.4506754,92.5369967 26.7030033,94.5742426 C32.9351344,104.704997 53.5176918,109.36021 59.677823,110.545259 L58.3381508,117.499751 Z" id="Fill-6" fill="#231815"></path>
                <path d="M123.353089,118.059344 L122.587056,111.018689 C131.091318,110.08623 154.450007,105.257508 160.332761,94.2556721 C162.157548,90.8409836 163.490138,83.1192787 159.652892,79.887541 C159.57499,79.8273443 156.386925,77.3592787 152.205023,78.4558033 C148.154138,79.5192787 142.858007,83.3270164 134.500105,91.188 L129.647777,86.0287869 C139.174203,77.0700984 144.99558,73.0262951 150.408564,71.6063607 C158.163318,69.5750164 163.945744,74.2479344 164.187711,74.4474098 C171.139843,80.3041967 169.718728,91.7167869 166.577875,97.5936393 C157.731318,114.140656 124.752957,117.907082 123.353089,118.059344" id="Fill-8" fill="#231815"></path>
                <path d="M92.4916459,161.597154 L90.8675148,160.886597 C60.5602361,147.627974 48.6460066,96.9175475 44.2398426,67.8684984 L51.2415475,66.8073836 C54.5429246,88.5749902 65.0549246,139.889744 91.9876459,153.586269 C98.4593836,148.918072 124.752367,126.609875 133.672105,67.294859 L140.67499,68.3488918 C129.959974,139.599384 95.4955803,159.893941 94.0331541,160.722531 L92.4916459,161.597154 Z" id="Fill-10" fill="#231815"></path>
                <path d="M92.5262295,10.5607475 C68.7036721,10.5607475 49.3238689,29.9417311 49.3238689,53.7642885 C49.3238689,77.5856656 68.7036721,96.9654689 92.5262295,96.9654689 C116.349967,96.9654689 135.730951,77.5856656 135.730951,53.7642885 C135.730951,29.9417311 116.349967,10.5607475 92.5262295,10.5607475 M92.5262295,104.047436 C64.8003279,104.047436 42.2419016,81.4901902 42.2419016,53.7642885 C42.2419016,26.0360262 64.8003279,3.47878033 92.5262295,3.47878033 C120.253311,3.47878033 142.812918,26.0360262 142.812918,53.7642885 C142.812918,81.4901902 120.253311,104.047436 92.5262295,104.047436" id="Fill-12" fill="#231815"></path>
                <path d="M79.388118,145.069141 C79.388118,145.069141 91.0178885,146.559895 104.503134,145.069141 C104.503134,145.069141 100.517167,155.391108 93.2321836,159.28619 C93.2321836,159.28619 81.2589377,148.586518 79.388118,145.069141" id="Fill-14" fill="#231815"></path>
                <path d="M72.411082,54.2253246 C72.411082,57.8784393 69.448459,60.839882 65.7977049,60.839882 C62.1457705,60.839882 59.1831475,57.8784393 59.1831475,54.2253246 C59.1831475,50.5722098 62.1457705,47.6107672 65.7977049,47.6107672 C69.448459,47.6107672 72.411082,50.5722098 72.411082,54.2253246" id="Fill-16" fill="#231815"></path>
                <path d="M128.514662,54.3913967 C128.514662,58.0445115 125.552039,61.0059541 121.901285,61.0059541 C118.249351,61.0059541 115.286728,58.0445115 115.286728,54.3913967 C115.286728,50.7394623 118.249351,47.7780197 121.901285,47.7780197 C125.552039,47.7780197 128.514662,50.7394623 128.514662,54.3913967" id="Fill-18" fill="#231815"></path>
                <path d="M83.8223738,57.0435934 C84.0844066,57.0341508 84.7347672,57.4543475 84.9295213,57.6278557 C86.4556852,58.9934951 91.9406689,63.4940852 99.2740459,57.5239869 C99.4168656,57.4059541 99.5289967,57.2643148 99.9975869,57.1273967 C100.428407,57.0034623 102.861062,57.0034623 102.184734,59.3735607 C102.184734,59.3735607 94.0487344,69.170282 82.6762754,60.7451016 C82.5653246,60.6612984 82.3811934,60.5172984 82.1333246,60.2198557 C81.8819148,59.9212328 80.3722754,57.1663475 83.8223738,57.0435934" id="Fill-20" fill="#231815"></path>
                <polygon id="Fill-22" fill="#231815" points="67.5514361 15.4572197 60.6063869 7.39558033 62.3957639 5.85525246 69.3408131 13.9157115"></polygon>
                <path d="M126.70038,8.78848525 C124.404643,8.57838689 122.713233,6.54468197 122.924511,4.25012459 C123.13461,1.95438689 125.168315,0.265337705 127.462872,0.476616393 C129.75861,0.685534426 131.447659,2.71687869 131.238741,5.01261639 C131.026282,7.3083541 128.996118,8.99858361 126.70038,8.78848525" id="Fill-24" fill="#231815"></path>
                <path d="M59.1911738,8.78848525 C56.8954361,8.57838689 55.2052066,6.54468197 55.4164852,4.25012459 C55.6254033,1.95438689 57.6591082,0.265337705 59.9536656,0.476616393 C62.2494033,0.685534426 63.9384525,2.71687869 63.7295344,5.01261639 C63.5170754,7.3083541 61.4869115,8.99858361 59.1911738,8.78848525" id="Fill-26" fill="#231815"></path>
                <polygon id="Fill-28" fill="#231815" points="116.427869 13.8810098 115.056328 11.9594361 123.719934 5.78041967 125.091475 7.70199344"></polygon>
                <path d="M92.5504262,127.937036 C88.5160656,127.937036 84.8110164,126.515921 82.1151475,124.885889 C73.8398689,129.393561 62.8132459,122.725889 57.1913443,117.61861 L61.9504262,112.373233 C65.0476066,115.174151 74.9718033,122.206544 79.7627541,117.929036 L82.0348852,115.902413 L84.3790164,117.842872 C85.2205902,118.525102 92.9234098,124.416118 99.8094426,117.595003 L101.517377,115.903593 L103.718689,116.865561 C104.147148,117.046151 114.695738,121.357889 122.242754,111.552905 L127.854033,115.871725 C120.108721,125.937561 109.298098,125.931659 103.094295,124.142282 C99.6194098,126.917233 95.9662951,127.937036 92.5504262,127.937036" id="Fill-30" fill="#231815"></path>
                <path d="M90.5448131,157.151921 L89.2594361,157.151921 L89.2594361,147.885167 C89.6324197,147.885167 89.9936,147.8592 90.3488787,147.901692 C90.4539279,147.914675 90.5778623,148.11061 90.6179934,148.243987 C91.0464525,149.698151 91.4595672,151.155856 91.8774033,152.61238 C91.9187148,152.7552 91.9635672,152.89802 92.0296656,153.11402 C92.4687475,151.570151 92.8854033,150.099462 93.3056,148.627593 C93.5192393,147.881626 93.5204197,147.881626 94.2888131,147.881626 L94.7786492,147.881626 L94.7786492,157.144839 L93.5015344,157.144839 L93.5015344,152.220511 C93.4838295,152.21461 93.4673049,152.209889 93.4496,152.205167 C93.2017311,153.15179 92.9538623,154.098413 92.7071738,155.046216 C92.6233705,155.368446 92.5159607,155.688315 92.4640262,156.015266 C92.4203541,156.291462 92.2834361,156.350479 92.0320262,156.344577 C91.7936,156.339856 91.6555016,156.306807 91.588223,156.025889 C91.3120262,154.87979 91.0016,153.743134 90.7017967,152.602938 C90.6687475,152.475462 90.6227148,152.349167 90.5448131,152.097757 L90.5448131,157.151921 Z" id="Fill-32" fill="#FDCC02"></path>
            </g>
        </g>
    </g>
</svg>